<?xml version="1.0" encoding="iso-8859-1"?>
<!-- Uploaded to: SVG Repo, www.svgrepo.com, Generator: SVG Repo Mixer Tools -->
<svg height="800px" width="800px" version="1.1" id="Layer_1" xmlns="http://www.w3.org/2000/svg" xmlns:xlink="http://www.w3.org/1999/xlink" 
	 viewBox="0 0 504.446 504.446" xml:space="preserve">
<g transform="translate(1 1)">
	<path style="fill:#FD9808;" d="M445.951,413.636l-83.095-216.551c-3.357-8.393-15.948-12.59-24.341-12.59h-8.393
		c-14.269,0-25.18-0.839-37.77,0.839l-4.197,4.197h-0.839c10.072,2.518,20.144,5.875,29.377,10.072l9.233,4.197
		c7.554,3.357,12.59,10.911,12.59,20.144v232.498c0,8.393-5.036,15.948-12.59,20.144l-10.072,5.036
		c-10.072,5.036-20.984,8.393-31.895,10.911c2.518,1.679,5.875,2.518,9.233,3.357l10.911,0.839
		c47.843,2.518,95.685-15.108,129.259-49.521l7.554-8.393C447.629,430.423,449.308,421.19,445.951,413.636"/>
	<path style="fill:#FCC309;" d="M420.77,413.636l-83.095-216.551c-3.357-8.393-15.948-12.59-24.341-12.59h-8.393
		c-14.269,0-25.18-0.839-37.77,0.839l-4.197,4.197h-0.839c10.072,2.518,20.144,5.875,29.377,10.072l9.233,4.197
		c7.554,3.357,12.59,10.911,12.59,20.144v232.498c0,8.393-5.036,15.948-12.59,20.144l-10.072,5.036
		c-10.072,5.036-20.984,8.393-31.895,10.911c2.518,1.679,5.875,2.518,9.233,3.357l10.911,0.839
		c47.843,2.518,95.685-15.108,129.259-49.521l7.554-8.393C422.449,430.423,424.128,421.19,420.77,413.636"/>
	<path style="fill:#FFDD09;" d="M229.4,189.531c-10.072,2.518-19.305,5.875-28.538,10.072l-9.233,4.197
		c-7.554,3.357-12.59,10.911-12.59,20.144v232.498c0,8.393,5.036,15.948,12.59,20.144l10.072,5.036
		c43.646,20.144,69.666,20.144,113.311,0l10.072-5.036c7.554-3.357,12.59-10.911,12.59-20.144V223.105
		c0-8.393-5.036-15.948-12.59-20.144l-9.233-4.197c-22.662-10.072-34.413-15.108-58.754-15.108L229.4,189.531z"/>
	<path style="fill:#FFFFFF;" d="M201.702,479.944l-10.072-5.036c-7.554-3.357-12.59-10.911-12.59-20.144V223.105
		c0-8.393,5.036-15.948,12.59-20.144l9.233-4.197c3.357-1.679,6.715-2.518,9.233-4.197l-5.875-5.875
		c-10.072,2.518-19.305,5.875-28.538,10.072l-9.233,4.197c-7.554,3.357-12.59,10.911-12.59,20.144v232.498
		c0,8.393,5.036,15.948,12.59,20.144l10.072,5.036c26.02,11.751,53.718,16.787,82.256,14.269
		C239.472,492.534,220.167,487.498,201.702,479.944"/>
	<g>
		<path style="fill:#FFDD09;" d="M96.784,73.702c-6.715,0-12.59-2.518-17.626-7.554L55.656,42.646
			c-5.036-5.036-7.554-11.751-7.554-18.466s2.518-13.43,7.554-17.626c10.072-10.072,26.02-10.072,35.252,0l23.502,23.502
			c10.072,10.072,10.072,26.02,0,35.252C110.213,71.184,103.498,73.702,96.784,73.702z M73.282,15.787
			c-2.518,0-4.197,0.839-5.875,2.518c-1.679,1.679-2.518,4.197-2.518,5.875c0,2.518,0.839,4.197,2.518,5.875l23.502,23.502
			c3.357,3.357,8.393,3.357,11.751,0c3.357-3.357,3.357-8.393,0-11.751L79.157,18.305C77.479,16.626,75.8,15.787,73.282,15.787z"/>
		<path style="fill:#FFDD09;" d="M168.128,144.207c-6.715,0-12.59-2.518-17.626-7.554l0,0L127,113.151
			c-5.036-5.036-7.554-10.911-7.554-17.626s2.518-13.43,7.554-17.626c10.072-10.072,26.02-10.072,35.252,0l23.502,23.502
			c10.072,10.072,10.072,26.02,0,35.252C181.557,142.528,174.843,144.207,168.128,144.207z M162.252,125.741
			c3.357,3.357,8.393,3.357,11.751,0s3.357-8.393,0-11.751l-23.502-23.502c-3.357-3.357-8.393-3.357-11.751,0
			c-1.679,1.679-2.518,3.357-2.518,5.875s0.839,4.197,2.518,5.875L162.252,125.741z"/>
		<path style="fill:#FFDD09;" d="M132.875,92.167c-2.518,0-4.197-0.839-5.875-2.518l-24.341-23.502
			c-3.357-3.357-3.357-8.393,0-11.751c3.357-3.357,8.393-3.357,11.751,0l23.502,23.502c3.357,3.357,3.357,8.393,0,11.751
			C137.072,91.328,134.554,92.167,132.875,92.167z"/>
		<path style="fill:#FFDD09;" d="M239.472,215.551c-6.715,0-12.59-2.518-17.626-7.554l0,0l-23.502-23.502
			c-10.072-10.072-10.072-26.02,0-35.252c9.233-9.233,26.02-9.233,35.252,0l23.502,23.502c10.072,10.072,10.072,26.02,0,35.252
			C252.062,213.033,246.187,215.551,239.472,215.551z M233.597,196.246c3.357,3.357,8.393,3.357,11.751,0
			c3.357-3.357,3.357-8.393,0-11.751l-23.502-23.502c-3.357-3.357-8.393-3.357-11.751,0s-3.357,8.393,0,11.751L233.597,196.246z"/>
		<path style="fill:#FFDD09;" d="M204.22,163.511c-2.518,0-4.197-0.839-5.875-2.518l-23.502-23.502
			c-3.357-3.357-3.357-8.393,0-11.751c3.357-3.357,8.393-3.357,11.751,0l23.502,23.502c3.357,3.357,3.357,8.393,0,11.751
			C208.416,162.672,205.898,163.511,204.22,163.511z"/>
		<path style="fill:#FFDD09;" d="M415.734,73.702c-6.715,0-12.59-2.518-17.626-7.554c-10.072-10.072-10.072-26.02,0-35.252
			L421.61,7.393c10.072-10.072,26.02-10.072,35.252,0c10.072,10.072,10.072,26.02,0,35.252l-23.502,23.502l0,0
			C428.325,71.184,421.61,73.702,415.734,73.702z M427.485,60.272L427.485,60.272L427.485,60.272z M439.236,15.787
			c-2.518,0-4.197,0.839-5.875,2.518l-23.502,23.502c-3.357,3.357-3.357,8.393,0,11.751c3.357,3.357,8.393,3.357,11.751,0
			l23.502-23.502c3.357-3.357,3.357-8.393,0-11.751C443.433,16.626,441.754,15.787,439.236,15.787z"/>
		<path style="fill:#FFDD09;" d="M344.39,144.207c-6.715,0-12.59-2.518-17.626-7.554c-10.072-10.072-10.072-26.02,0-35.252
			l23.502-23.502c10.072-10.072,26.02-10.072,35.252,0c5.036,5.036,7.554,10.911,7.554,17.626c0,6.715-2.518,13.43-7.554,17.626
			l-23.502,23.502l0,0C356.98,142.528,351.105,144.207,344.39,144.207z M356.141,131.616L356.141,131.616L356.141,131.616z
			 M367.892,87.131c-2.518,0-4.197,0.839-5.875,2.518l-23.502,23.502c-3.357,3.357-3.357,8.393,0,11.751
			c3.357,3.357,8.393,3.357,11.751,0l23.502-23.502c1.679-1.679,2.518-3.357,2.518-5.875c0-2.518-0.839-4.197-2.518-5.875
			C372.088,87.97,370.41,87.131,367.892,87.131z"/>
		<path style="fill:#FFDD09;" d="M379.643,92.167c-2.518,0-4.197-0.839-5.875-2.518c-3.357-3.357-3.357-8.393,0-11.751
			l23.502-23.502c3.357-3.357,8.393-3.357,11.751,0s3.357,8.393,0,11.751l-23.502,23.502
			C383.839,91.328,382.161,92.167,379.643,92.167z"/>
		<path style="fill:#FFDD09;" d="M308.298,163.511c-2.518,0-4.197-0.839-5.875-2.518c-3.357-3.357-3.357-8.393,0-11.751
			l23.502-23.502c3.357-3.357,8.393-3.357,11.751,0c3.357,3.357,3.357,8.393,0,11.751l-23.502,23.502
			C313.334,162.672,310.816,163.511,308.298,163.511z"/>
		<path style="fill:#FFDD09;" d="M298.226,197.925c-0.839,0-1.679,0-1.679,0c-12.59-3.357-25.18-5.036-38.61-5.036
			c-2.518,0-5.036-1.679-6.715-4.197c-1.679-2.518-1.679-5.036-0.839-7.554c1.679-3.357,3.357-5.875,5.036-7.554l23.502-23.502
			c9.233-9.233,26.02-9.233,35.252,0c5.036,5.036,7.554,10.911,7.554,17.626c0,6.715-2.518,13.43-7.554,17.626l-10.072,10.072
			C302.423,197.085,300.744,197.925,298.226,197.925z M275.564,176.941c6.715,0.839,13.43,1.679,20.144,3.357l7.554-7.554
			c1.679-1.679,2.518-3.357,2.518-5.875c0-2.518-0.839-4.197-2.518-5.875c-3.357-3.357-8.393-3.357-11.751,0L275.564,176.941z"/>
	</g>
	<path d="M86.711,73.702c-5.875,0-12.59-2.518-17.626-7.554L45.584,42.646c-10.072-10.072-10.072-26.02,0-35.252
		c10.072-10.072,26.02-10.072,35.252,0l23.502,23.502c10.072,10.072,10.072,26.02,0,35.252
		C100.141,71.184,93.426,73.702,86.711,73.702z M63.21,15.787c-2.518,0-4.197,0.839-5.875,2.518c-3.357,3.357-3.357,8.393,0,11.751
		l23.502,23.502c3.357,3.357,8.393,3.357,11.751,0c3.357-3.357,3.357-8.393,0-11.751L69.085,18.305
		C67.407,16.626,65.728,15.787,63.21,15.787z"/>
	<path d="M158.056,144.207c-6.715,0-12.59-2.518-17.626-7.554l-23.502-23.502c-10.072-10.072-10.072-26.02,0-35.252
		c10.072-10.072,26.02-10.072,35.252,0l23.502,23.502c10.072,10.072,10.072,26.02,0,35.252
		C171.485,142.528,164.77,144.207,158.056,144.207z M134.554,87.131c-2.518,0-4.197,0.839-5.875,2.518
		c-3.357,3.357-3.357,8.393,0,11.751l23.502,23.502c3.357,3.357,8.393,3.357,11.751,0c3.357-3.357,3.357-8.393,0-11.751
		l-23.502-23.502C138.751,87.97,136.233,87.131,134.554,87.131z"/>
	<path d="M122.803,92.167c-2.518,0-4.197-0.839-5.875-2.518L92.587,66.148c-3.357-3.357-3.357-8.393,0-11.751s8.393-3.357,11.751,0
		l24.341,23.502c3.357,3.357,3.357,8.393,0,11.751C127,91.328,124.482,92.167,122.803,92.167z"/>
	<path d="M229.4,215.551c-6.715,0-13.43-2.518-17.626-7.554l-23.502-23.502c-10.072-10.072-10.072-26.02,0-35.252
		c10.072-10.072,26.02-10.072,35.252,0l23.502,23.502c5.036,5.036,7.554,10.911,7.554,17.626s-2.518,13.43-7.554,17.626
		C242.829,213.033,236.115,215.551,229.4,215.551z M205.898,158.475c-2.518,0-4.197,0.839-5.875,2.518
		c-3.357,3.357-3.357,8.393,0,11.751l23.502,23.502c3.357,3.357,8.393,3.357,11.751,0c1.679-1.679,2.518-3.357,2.518-5.875
		c0-2.518-0.839-4.197-2.518-5.875l-23.502-23.502C210.095,159.315,207.577,158.475,205.898,158.475z"/>
	<path d="M194.148,163.511c-2.518,0-4.197-0.839-5.875-2.518l-23.502-23.502c-3.357-3.357-3.357-8.393,0-11.751
		c3.357-3.357,8.393-3.357,11.751,0l23.502,23.502c3.357,3.357,3.357,8.393,0,11.751
		C198.344,162.672,195.826,163.511,194.148,163.511z"/>
	<path d="M246.187,503.446c-25.18,0-49.521-5.036-73.023-15.948l-10.072-5.036c-10.911-5.036-17.626-15.948-17.626-27.698V223.105
		c0-11.751,6.715-22.662,17.626-27.698l9.233-4.197c9.233-4.197,19.305-7.554,30.216-10.911c2.518-0.839,5.875,0,8.393,2.518
		l13.43,13.43c3.357,3.357,8.393,3.357,11.751,0c2.518-2.518,3.357-5.875,1.679-9.233c-0.839-2.518-0.839-5.875,0.839-7.554
		c1.679-2.518,4.197-4.197,6.715-4.197c26.02,0,52.039,5.036,75.541,15.948l9.233,4.197c10.911,5.036,17.626,15.948,17.626,27.698
		v232.498c0,11.751-6.715,22.662-17.626,27.698l-10.072,5.036C295.708,497.57,271.367,503.446,246.187,503.446z M201.702,198.764
		c-7.554,2.518-15.108,5.036-22.662,8.393l-9.233,4.197c-5.036,2.518-7.554,6.715-7.554,12.59v232.498
		c0,5.036,3.357,10.072,7.554,12.59l10.072,5.036c41.967,19.305,89.81,19.305,131.777,0l10.072-5.036
		c5.036-2.518,7.554-6.715,7.554-12.59V223.105c0-5.036-3.357-10.072-7.554-12.59l-8.393-3.357
		c-18.466-8.393-38.61-13.43-58.754-14.269c-0.839,5.875-2.518,11.751-7.554,15.948c-10.072,10.072-26.02,10.072-35.252,0
		L201.702,198.764z"/>
	<path d="M288.154,275.984H204.22c-5.036,0-8.393-3.357-8.393-8.393s3.357-8.393,8.393-8.393h83.934
		c5.036,0,8.393,3.357,8.393,8.393S293.19,275.984,288.154,275.984z"/>
	<path d="M288.154,326.344H204.22c-5.036,0-8.393-3.357-8.393-8.393c0-5.036,3.357-8.393,8.393-8.393h83.934
		c5.036,0,8.393,3.357,8.393,8.393C296.548,322.987,293.19,326.344,288.154,326.344z"/>
	<path d="M288.154,376.705H204.22c-5.036,0-8.393-3.357-8.393-8.393c0-5.036,3.357-8.393,8.393-8.393h83.934
		c5.036,0,8.393,3.357,8.393,8.393C296.548,373.348,293.19,376.705,288.154,376.705z"/>
	<path d="M288.154,427.066H204.22c-5.036,0-8.393-3.357-8.393-8.393c0-5.036,3.357-8.393,8.393-8.393h83.934
		c5.036,0,8.393,3.357,8.393,8.393C296.548,423.708,293.19,427.066,288.154,427.066z"/>
	<path d="M338.515,369.99c-3.357,0-6.715-1.679-7.554-5.036c-1.679-4.197,0.839-9.233,5.036-10.911l29.377-11.751
		c4.197-1.679,9.233,0.839,10.911,5.036c1.679,4.197-0.839,9.233-5.036,10.911l-29.377,11.751
		C340.193,369.99,339.354,369.99,338.515,369.99z"/>
	<path d="M338.515,424.548c-3.357,0-6.715-1.679-7.554-5.036c-1.679-4.197,0.839-9.233,5.036-10.911l47.843-18.466
		c4.197-1.679,9.233,0.839,10.911,5.036c1.679,4.197-0.839,9.233-5.036,10.911l-47.843,18.466
		C340.193,423.708,339.354,424.548,338.515,424.548z"/>
	<path d="M405.662,73.702c-6.715,0-12.59-2.518-17.626-7.554c-10.072-10.072-10.072-26.02,0-35.252l23.502-23.502
		c10.072-10.072,26.02-10.072,35.252,0c5.036,5.036,7.554,10.911,7.554,17.626s-2.518,13.43-7.554,17.626l-23.502,23.502l0,0
		C418.252,71.184,411.538,73.702,405.662,73.702z M417.413,60.272L417.413,60.272L417.413,60.272z M429.164,15.787
		c-2.518,0-4.197,0.839-5.875,2.518l-23.502,23.502c-3.357,3.357-3.357,8.393,0,11.751c3.357,3.357,8.393,3.357,11.751,0
		l23.502-23.502c1.679-1.679,2.518-3.357,2.518-5.875s-0.839-4.197-2.518-5.875C433.361,16.626,431.682,15.787,429.164,15.787z"/>
	<path d="M334.318,144.207c-6.715,0-12.59-2.518-17.626-7.554c-10.072-10.072-10.072-26.02,0-35.252l23.502-23.502
		c10.072-10.072,26.02-10.072,35.252,0C380.482,82.934,383,88.81,383,95.525c0,6.715-2.518,13.43-7.554,17.626l-23.502,23.502l0,0
		C346.908,142.528,341.033,144.207,334.318,144.207z M346.069,131.616L346.069,131.616L346.069,131.616z M357.82,87.131
		c-2.518,0-4.197,0.839-5.875,2.518l-23.502,23.502c-3.357,3.357-3.357,8.393,0,11.751c3.357,3.357,8.393,3.357,11.751,0
		l23.502-23.502c1.679-1.679,2.518-3.357,2.518-5.875c0-2.518-0.839-4.197-2.518-5.875C362.016,87.97,360.338,87.131,357.82,87.131z
		"/>
	<path d="M369.57,92.167c-2.518,0-4.197-0.839-5.875-2.518c-3.357-3.357-3.357-8.393,0-11.751l23.502-23.502
		c3.357-3.357,8.393-3.357,11.751,0s3.357,8.393,0,11.751l-23.502,23.502C373.767,91.328,372.088,92.167,369.57,92.167z"/>
	<path d="M298.226,163.511c-2.518,0-4.197-0.839-5.875-2.518c-3.357-3.357-3.357-8.393,0-11.751l23.502-23.502
		c3.357-3.357,8.393-3.357,11.751,0c3.357,3.357,3.357,8.393,0,11.751l-22.662,23.502
		C303.262,162.672,300.744,163.511,298.226,163.511z"/>
	<path d="M288.154,197.925c-0.839,0-1.679,0-1.679,0c-12.59-3.357-25.18-5.036-38.61-5.036c-2.518,0-5.036-1.679-6.715-4.197
		c-1.679-2.518-1.679-5.036-0.839-7.554c1.679-3.357,3.357-5.875,5.036-7.554l23.502-23.502c9.233-9.233,26.02-9.233,35.252,0
		c10.072,10.072,10.072,26.02,0,35.252l-10.072,10.072C292.351,197.085,290.672,197.925,288.154,197.925z M265.492,176.941
		c6.715,0.839,13.43,1.679,20.144,3.357l7.554-7.554c3.357-3.357,3.357-8.393,0-11.751c-3.357-3.357-8.393-3.357-11.751,0
		L265.492,176.941z"/>
	<path d="M314.174,502.607c-3.357,0-6.715,0-10.072,0l-10.911-0.839c-4.197,0-8.393-1.679-13.43-4.197
		c-3.357-1.679-5.036-5.036-4.197-8.393c0.839-3.357,3.357-5.875,6.715-6.715c10.911-2.518,20.984-5.875,30.216-10.072l10.072-5.036
		c5.036-2.518,7.554-6.715,7.554-12.59V223.105c0-5.036-3.357-10.072-7.554-12.59l-9.233-3.357
		c-8.393-4.197-18.466-7.554-27.698-10.072c-4.197-0.839-7.554-5.875-5.875-10.072c0.839-2.518,2.518-5.036,5.036-5.875l1.679-1.679
		c1.679-1.679,3.357-2.518,5.036-2.518c10.072-1.679,20.144-1.679,30.216-1.679h16.787c9.233,0.839,26.859,5.036,31.895,18.466
		l83.934,216.551l0,0c4.197,10.911,1.679,23.502-6.715,31.895l-7.554,8.393C406.502,484.141,361.177,502.607,314.174,502.607z
		 M321.728,192.049l7.554,3.357c10.911,5.036,17.626,15.948,17.626,27.698v232.498c0,11.751-6.715,22.662-17.626,27.698
		l-6.715,2.518c39.449-1.679,77.22-18.466,104.918-47.003l7.554-8.393c3.357-3.357,5.036-9.233,3.357-14.269l-83.095-216.551
		c-0.839-3.357-9.233-6.715-16.787-7.554h-8.393H321.728L321.728,192.049z"/>
</g>
</svg>